<svg xmlns="http://www.w3.org/2000/svg" viewBox="0 0 64 68" fill="none"><path d="M9 53V29C9 13 18 5 32 5s23 8 23 24v24" stroke="#DBC798" stroke-width="1.6"/><ellipse cx="32" cy="55" rx="24" ry="6" stroke="#DBC798" stroke-width="1.6"/><path d="M32 54c-2-10 3-17 0-25m0 15c-8-2-10-7-11-10 7-1 10 3 11 10m1-6c3-6 7-8 13-7-2 6-6 9-13 7" stroke="#8EA792" stroke-width="2" stroke-linecap="round"/><path d="m22 19 8-6 10 3 6 9-8 8-12-3-7-6Z" fill="#AD6267" stroke="#D59791" stroke-width="1.2"/><path d="m26 20 8-2 5 7-6 3-5-4 5-3" stroke="#E8B8A5" stroke-width="1.2"/><path d="m53 1 1.5 5L60 8l-5.5 1.5L53 15l-1.5-5.5L46 8l5.5-2Z" fill="#B18C49"/></svg>
